:SAMPLES-PER-SECOND 30
:FULLY-SPECIFIED
:DEGREES
223
root  34.81342286 36.56603896 -14.25958618 9.542612076 -3.586542845 3.801031113
lowerback  -7.824841976 -0.1172340587 -1.536180377
upperback  -3.929282904 0.5365700126 -4.68005228
thorax  0.3664189875 0.4783143699 -3.938689947
lowerneck  -7.178410053 -14.74559975 -9.48707962
upperneck  13.81260014 -20.65169716 13.20079994
head  7.820829868 -9.257849693 3.598670006
lclavicle  0 -4.497500157e-015 -2.743230041e-014
lhumerus  -47.15660095 30.76390266 61.52190018
lradius  -0.1133847088 -6.507048965e-006 29.28880119
lwrist  3.192251654e-007 -3.790274832e-007 -29.5673008
lhand  -4.433634775e-031 -37.20849991 -10.68550014
lfingers  90 7.125020027 -90
lthumb  94.96296558 -25.50998002 101.3999255
rclavicle  0 -4.497500157e-015 -2.743230041e-014
rhumerus  7.331709862 -37.63470078 -35.62099838
rradius  -5.16745672e-007 2.214343908e-008 53.80799866
rwrist  0.0003490542294 -0.002273720223 -167.6600037
rhand  -1.770893344e-031 4.446800232 -7.493040085
rfingers  -90 -7.125020027 -90
rthumb  -85.04094474 -8.56897586 -59.7860468
rfemur  -11.05410385 15.1785965 12.56222725
rtibia  -0.5009486079 -1.181462407 18.43104362
rfoot  1.360461831 -21.36021233 -35.79818344
rtoes  3.84485621 19.6418162 -101.3064096
lfemur  -4.341831207 -17.13489342 -22.48835182
ltibia  6.350730896 -0.5917318463 8.354709625
lfoot  0.5245320797 -21.26967621 36.38473892
ltoes  -8.647520468 -18.10329503 -116.0789779
224
root  34.81306542 36.56460019 -14.26215735 9.517007828 -3.545639753 3.802253723
lowerback  -7.829352379 -0.1244530678 -1.552039981
upperback  -3.929003 0.528496027 -4.682116032
thorax  0.3655707538 0.4722769856 -3.92779994
lowerneck  -7.174099922 -14.73099995 -9.461389542
upperneck  13.79230022 -20.62800217 13.17000008
head  7.804130077 -9.249970436 3.589979887
lclavicle  0 -4.497500157e-015 -2.743230041e-014
lhumerus  -47.13510132 30.69319916 61.57740021
lradius  -0.1145064607 -6.507048965e-006 29.30699921
lwrist  3.192251654e-007 -3.790274832e-007 -29.42420006
lhand  -4.434481161e-031 -37.22290039 -10.67010021
lfingers  90 7.125020027 -90
lthumb  94.9663501 -25.49436754 101.4138811
rclavicle  0 -4.497500157e-015 -2.743230041e-014
rhumerus  6.294038296 -37.35250092 -35.17009735
rradius  -5.16745672e-007 2.214343908e-008 54.92399979
rwrist  0.0003490542294 -0.002273720223 -168.1869965
rhand  -1.77083316e-031 4.421689987 -7.504950047
rfingers  -90 -7.125020027 -90
rthumb  -85.0527867 -8.5570461 -59.81145403
rfemur  -11.05271721 15.19293499 12.58716774
rtibia  -0.516006887 -1.142141104 18.48451614
rfoot  1.341638803 -21.30443001 -35.82579041
rtoes  3.84695699 19.64142051 -101.3126594
lfemur  -4.170136452 -17.13197708 -22.55316925
ltibia  6.466302395 -0.5694788694 8.117968559
lfoot  0.5146448612 -21.22915077 36.40799332
ltoes  -8.671783709 -18.09198763 -116.1570858
225
root  34.81251874 36.56446202 -14.26425694 9.490794182 -3.511668444 3.804507971
lowerback  -7.832249641 -0.1286489069 -1.569440007
upperback  -3.928559303 0.5241490006 -4.682759762
thorax  0.3624197245 0.4704029858 -3.908910036
lowerneck  -7.192440033 -14.71490002 -9.475819588
upperneck  13.80230045 -20.60300255 13.15859985
head  7.800189495 -9.239230156 3.591727734
lclavicle  0 -4.497500157e-015 -2.743230041e-014
lhumerus  -47.15140152 30.70140076 61.59529877
lradius  -0.1153945774 -6.507048965e-006 29.35000038
lwrist  3.192251654e-007 -3.790274832e-007 -29.45459938
lhand  -4.430770962e-031 -37.15969849 -10.68480015
lfingers  90 7.125020027 -90
lthumb  94.93991806 -25.51110583 101.34765
rclavicle  0 -4.497500157e-015 -2.743230041e-014
rhumerus  5.182329178 -36.99900055 -34.6731987
rradius  -5.16745672e-007 2.214343908e-008 56.10509872
rwrist  0.0003490542294 -0.002273720223 -168.7169952
rhand  -1.770769164e-031 4.394830227 -7.431000233
rfingers  -90 -7.125020027 -90
rthumb  -85.02135534 -8.61925524 -59.83197697
rfemur  -11.03761959 15.22772217 12.60391903
rtibia  -0.5266329646 -1.111793637 18.51389694
rfoot  1.329515219 -21.25604439 -35.86606979
rtoes  3.832712048 19.64409921 -101.2702832
lfemur  -4.105310917 -17.10418892 -22.57234001
ltibia  6.502053738 -0.5570992827 8.041347504
lfoot  0.5085121393 -21.22889519 36.38941193
ltoes  -8.681632681 -18.08738637 -116.188805
226
root  34.8111821 36.5677781 -14.26645714 9.46906662 -3.484145641 3.789721012
lowerback  -7.825270653 -0.1341550946 -1.573459983
upperback  -3.928006172 0.5177680254 -4.681089878
thorax  0.3583390713 0.4654667079 -3.915450096
lowerneck  -7.204460144 -14.69779968 -9.495349884
upperneck  13.80249977 -20.57869911 13.16959953
head  7.80464077 -9.228246689 3.596259832
lclavicle  0 -4.497500157e-015 -2.743230041e-014
lhumerus  -47.1833992 30.76429939 61.56330109
lradius  -0.1162123159 -6.507048965e-006 29.3864994
lwrist  3.192251654e-007 -3.790274832e-007 -29.5258007
lhand  -0 -37.13899994 -10.70250034
lfingers  90 7.125020027 -90
lthumb  94.93404325 -25.52919997 101.3271377
rclavicle  0 -4.497500157e-015 -2.743230041e-014
rhumerus  4.153168678 -36.74890137 -34.29999924
rradius  -5.16745672e-007 2.214343908e-008 57.22340012
rwrist  0.0003490542294 -0.002273720223 -169.1909943
rhand  -1.770694731e-031 4.363379955 -7.394499779
rfingers  -90 -7.125020027 -90
rthumb  -85.01009337 -8.648751005 -59.85983484
rfemur  -10.99218273 15.21459484 12.63381195
rtibia  -0.5221164823 -1.106052756 18.47455215
rfoot  1.355713725 -21.24044991 -35.85404968
rtoes  3.841579963 19.64243285 -101.296663
lfemur  -4.20945406 -17.17223167 -22.50659752
ltibia  6.393620491 -0.5760406256 8.258303642
lfoot  0.5081610084 -21.27721214 36.36877441
ltoes  -8.667908231 -18.09379639 -116.1446068
227
root  34.81047022 36.56896756 -14.26889014 9.453766823 -3.451762915 3.799815416
lowerback  -7.815179825 -0.1421249956 -1.569990158
upperback  -3.927398682 0.5054240227 -4.673669815
thorax  0.3547019958 0.4609619975 -3.910650015
lowerneck  -7.227970123 -14.68449974 -9.516730309
upperneck  13.8210001 -20.55830002 13.16119957
head  7.807632446 -9.218913078 3.598707438
lclavicle  0 -4.497500157e-015 -2.743230041e-014
lhumerus  -47.17419815 30.69910049 61.61019897
lradius  -0.1169619113 -6.507048965e-006 29.42110062
lwrist  3.192251654e-007 -3.790274832e-007 -29.3817997
lhand  -0 -37.17070007 -10.74940014
lfingers  90 7.125020027 -90
lthumb  94.95917246 -25.57401638 101.3654806
rclavicle  0 -4.497500157e-015 -2.743230041e-014
rhumerus  3.08893013 -36.53139877 -33.95000458
rradius  -5.16745672e-007 2.214343908e-008 58.38150024
rwrist  0.0003490542294 -0.002273720223 -169.9340057
rhand  -1.77065982e-031 4.348549843 -7.381849766
rfingers  -90 -7.125020027 -90
rthumb  -85.00711697 -8.658722726 -59.87337232
rfemur  -10.9747839 15.22207928 12.64077759
rtibia  -0.5355971456 -1.09298408 18.47889328
rfoot  1.351209879 -21.19799995 -35.8951149
rtoes  3.820673193 19.64635499 -101.2344741
lfemur  -4.305098534 -17.15760612 -22.46943855
ltibia  6.317299366 -0.5890817642 8.414597511
lfoot  0.5012718439 -21.31427574 36.28126526
ltoes  -8.67830711 -18.08894075 -116.1780939
228
root  34.81023293 36.57181207 -14.27166706 9.433320999 -3.420951605 3.796001911
lowerback  -7.813230515 -0.1528670192 -1.598560333
upperback  -3.926791906 0.4928370118 -4.664360046
thorax  0.3517160118 0.4588456452 -3.885770082
lowerneck  -7.226749897 -14.66670036 -9.535759926
upperneck  13.82260036 -20.53280258 13.16839981
head  7.812439919 -9.207410812 3.60121417
lclavicle  0 -4.497500157e-015 -2.743230041e-014
lhumerus  -47.18050003 30.69009972 61.63410187
lradius  -0.1176455319 -6.507048965e-006 29.42930031
lwrist  3.192251654e-007 -3.790274832e-007 -29.32229996
lhand  -4.426838784e-031 -37.09249878 -10.79829979
lfingers  90 7.125020027 -90
lthumb  94.93302571 -25.62483732 101.2864384
rclavicle  0 -4.497500157e-015 -2.743230041e-014
rhumerus  1.946652174 -36.26750565 -33.57310104
rradius  -5.16745672e-007 2.214343908e-008 59.63159943
rwrist  0.0003490542294 -0.002273720223 -170.5370026
rhand  -1.770584527e-031 4.316390038 -7.386219978
rfingers  -90 -7.125020027 -90
rthumb  -85.01674593 -8.652914576 -59.90505753
rfemur  -10.93552113 15.21141052 12.65686703
rtibia  -0.5368830562 -1.092805862 18.44981194
rfoot  1.367411017 -21.18573952 -35.89980316
rtoes  3.870598623 19.63695192 -101.3830013
lfemur  -4.351558208 -17.10494232 -22.43547821
ltibia  6.268984795 -0.5590782166 8.511235237
lfoot  0.5217250586 -21.43192482 36.25367355
ltoes  -8.68957451 -18.08367132 -116.2143878
